<svg version="1.1" xmlns="http://www.w3.org/2000/svg" xmlns:xlink="http://www.w3.org/1999/xlink">
  <symbol viewBox="0 0 25 19" id="icon-twitter">
    <path id="Vector" d="M21.6058 4.73514C21.621 4.94294 21.621 5.15079 21.621 5.35859C21.621 11.6968 16.6718 19 7.62608 19C4.83926 19 2.25043 18.2132 0.0727539 16.8477C0.468709 16.8922 0.849382 16.907 1.26057 16.907C3.56003 16.907 5.67682 16.15 7.36719 14.8586C5.20474 14.8141 3.39255 13.4336 2.76817 11.5336C3.07277 11.5781 3.37731 11.6078 3.69714 11.6078C4.13875 11.6078 4.58041 11.5484 4.99155 11.4445C2.73775 10.9992 1.04734 9.06952 1.04734 6.73905V6.6797C1.70214 7.03595 2.46362 7.25861 3.27067 7.28826C1.94579 6.4273 1.0778 4.95779 1.0778 3.29528C1.0778 2.40467 1.32142 1.58826 1.74784 0.875759C4.16918 3.78513 7.8088 5.6851 11.89 5.89295C11.8139 5.5367 11.7682 5.16564 11.7682 4.79454C11.7682 2.15232 13.9611 0 16.687 0C18.1032 0 19.3824 0.578905 20.2809 1.51406C21.3925 1.30626 22.4585 0.905458 23.4027 0.356253C23.0372 1.46956 22.2606 2.40472 21.2403 2.99842C22.2301 2.89457 23.1895 2.62732 24.0728 2.25627C23.4028 3.20623 22.5652 4.05229 21.6058 4.73514Z"></path>
  </symbol>
  <symbol xmlns="http://www.w3.org/2000/svg" viewBox="0 0 20 19" id="icon-facebook">
    <path d="M17.037 0H2.10847C1.56856 0 1.05077 0.214476 0.669001 0.596247C0.28723 0.978017 0.0727539 1.49581 0.0727539 2.03571L0.0727539 16.9643C0.0727539 17.5042 0.28723 18.022 0.669001 18.4038C1.05077 18.7855 1.56856 19 2.10847 19H7.92934V12.5404H5.25746V9.5H7.92934V7.18268C7.92934 4.54685 9.49854 3.09089 11.902 3.09089C13.053 3.09089 14.2566 3.29616 14.2566 3.29616V5.88321H12.9304C11.6237 5.88321 11.2162 6.69411 11.2162 7.52578V9.5H14.1332L13.6667 12.5404H11.2162V19H17.037C17.5769 19 18.0947 18.7855 18.4765 18.4038C18.8583 18.022 19.0728 17.5042 19.0728 16.9643V2.03571C19.0728 1.49581 18.8583 0.978017 18.4765 0.596247C18.0947 0.214476 17.5769 0 17.037 0Z"/>
  </symbol>
  <symbol xmlns="http://www.w3.org/2000/svg" viewBox="0 0 20 19" id="icon-instagram">
    <path d="M9.5702 6.33198C7.8258 6.33198 6.40224 7.75557 6.40224 9.5C6.40224 11.2444 7.8258 12.668 9.5702 12.668C11.3146 12.668 12.7382 11.2444 12.7382 9.5C12.7382 7.75557 11.3146 6.33198 9.5702 6.33198ZM19.0717 9.5C19.0717 8.18811 19.0836 6.88811 19.0099 5.5786C18.9362 4.05757 18.5893 2.70766 17.477 1.59541C16.3624 0.480781 15.0149 0.136173 13.4939 0.0624986C12.182 -0.0111762 10.8821 0.000706907 9.57258 0.000706907C8.26071 0.000706907 6.96074 -0.0111762 5.65125 0.0624986C4.13025 0.136173 2.78036 0.483158 1.66813 1.59541C0.553526 2.71004 0.208925 4.05757 0.135251 5.5786C0.061578 6.89049 0.0734608 8.19049 0.0734608 9.5C0.0734608 10.8095 0.061578 12.1119 0.135251 13.4214C0.208925 14.9424 0.555903 16.2923 1.66813 17.4046C2.78274 18.5192 4.13025 18.8638 5.65125 18.9375C6.96311 19.0112 8.26309 18.9993 9.57258 18.9993C10.8844 18.9993 12.1844 19.0112 13.4939 18.9375C15.0149 18.8638 16.3648 18.5168 17.477 17.4046C18.5916 16.29 18.9362 14.9424 19.0099 13.4214C19.086 12.1119 19.0717 10.8119 19.0717 9.5ZM9.5702 14.3744C6.8728 14.3744 4.69587 12.1974 4.69587 9.5C4.69587 6.80255 6.8728 4.62558 9.5702 4.62558C12.2676 4.62558 14.4445 6.80255 14.4445 9.5C14.4445 12.1974 12.2676 14.3744 9.5702 14.3744ZM14.6442 5.56434C14.0144 5.56434 13.5058 5.05575 13.5058 4.42595C13.5058 3.79615 14.0144 3.28755 14.6442 3.28755C15.2739 3.28755 15.7825 3.79615 15.7825 4.42595C15.7827 4.5755 15.7534 4.72361 15.6963 4.86181C15.6391 5.00001 15.5553 5.12558 15.4495 5.23133C15.3438 5.33708 15.2182 5.42093 15.08 5.47807C14.9418 5.53521 14.7937 5.56453 14.6442 5.56434Z"/>
  </symbol>
  <symbol xmlns="http://www.w3.org/2000/svg" viewBox="0 0 24 24" id="icon-add-circle">
    <path id="Vector" d="M12 22.75C6.07 22.75 1.25 17.93 1.25 12C1.25 6.07 6.07 1.25 12 1.25C17.93 1.25 22.75 6.07 22.75 12C22.75 17.93 17.93 22.75 12 22.75ZM12 2.75C6.9 2.75 2.75 6.9 2.75 12C2.75 17.1 6.9 21.25 12 21.25C17.1 21.25 21.25 17.1 21.25 12C21.25 6.9 17.1 2.75 12 2.75Z"></path>
    <path id="Vector_2" d="M16 12.75H8C7.59 12.75 7.25 12.41 7.25 12C7.25 11.59 7.59 11.25 8 11.25H16C16.41 11.25 16.75 11.59 16.75 12C16.75 12.41 16.41 12.75 16 12.75Z"></path>
    <path id="Vector_3" d="M12 16.75C11.59 16.75 11.25 16.41 11.25 16V8C11.25 7.59 11.59 7.25 12 7.25C12.41 7.25 12.75 7.59 12.75 8V16C12.75 16.41 12.41 16.75 12 16.75Z"></path>
  </symbol>
</svg>
